<svg width="149" height="71" viewBox="0 0 149 71" fill="none" xmlns="http://www.w3.org/2000/svg">
<path d="M2.964 48.696C2.72133 45.1253 2.6 40.3067 2.6 34.24C2.6 28.1387 2.68667 24.1867 2.86 22.384C3.03333 21.2747 3.796 20.5467 5.148 20.2C6.5 19.8187 8.28533 19.628 10.504 19.628C13.7627 19.628 16.5013 20.3387 18.72 21.76C20.9733 23.1467 22.1 25.2093 22.1 27.948C22.1 30.2013 21.788 32.0907 21.164 33.616C20.54 35.1067 19.76 36.216 18.824 36.944C17.2987 38.1227 15.0453 38.712 12.064 38.712C10.7813 38.712 9.1 38.5387 7.02 38.192C7.19333 45.1253 7.26267 49.4933 7.228 51.296C7.19333 53.0987 6.58667 54 5.408 54C4.64533 54 4.16 53.8613 3.952 53.584C3.744 53.3067 3.60533 53.116 3.536 53.012C3.46667 52.8733 3.39733 52.6827 3.328 52.44C3.25867 52.1973 3.20667 52.0067 3.172 51.868C3.13733 51.6947 3.10267 51.452 3.068 51.14C3.068 50.828 3.05067 50.5853 3.016 50.412C2.98133 49.892 2.964 49.32 2.964 48.696ZM17.784 28.104C17.784 26.6827 17.0213 25.5733 15.496 24.776C13.9707 23.944 12.3413 23.528 10.608 23.528C8.87467 23.528 7.66133 23.684 6.968 23.996C6.82933 26.0413 6.76 27.9307 6.76 29.664C6.76 31.3627 6.82933 32.9053 6.968 34.292C7.904 34.396 8.54533 34.4827 8.892 34.552C9.79333 34.656 10.556 34.708 11.18 34.708C11.8387 34.708 12.272 34.708 12.48 34.708C12.7227 34.6733 13.156 34.6213 13.78 34.552C14.4387 34.448 14.9067 34.292 15.184 34.084C15.4613 33.876 15.808 33.5987 16.224 33.252C16.64 32.9053 16.9347 32.5067 17.108 32.056C17.5587 30.808 17.784 29.4907 17.784 28.104ZM33.7192 46.408L33.7712 51.764C33.7712 52.388 33.4765 52.96 32.8872 53.48C32.3325 54 31.7778 54.26 31.2232 54.26C30.4258 54.26 29.9232 53.636 29.7152 52.388C29.6805 52.1107 29.5418 49.58 29.2992 44.796C29.0565 39.9773 28.5885 36.1987 27.8952 33.46C27.5832 32.1427 27.4272 31.3627 27.4272 31.12C27.4272 29.976 28.1205 29.404 29.5072 29.404C30.0965 29.404 30.5645 29.6293 30.9112 30.08C31.2578 30.5307 31.4658 30.9987 31.5352 31.484C31.6392 31.9347 31.7258 32.5587 31.7952 33.356C31.8645 34.1533 31.9165 34.656 31.9512 34.864C32.6792 33.1307 33.7712 31.8307 35.2272 30.964C36.6832 30.0973 38.2778 29.664 40.0112 29.664C42.8538 29.664 44.2752 30.392 44.2752 31.848C44.2752 32.576 44.0152 33.1653 43.4952 33.616C43.0098 34.032 42.4378 34.24 41.7792 34.24C38.8325 34.24 36.7525 35.176 35.5392 37.048C34.3258 38.92 33.7192 42.04 33.7192 46.408ZM56.223 29.768C58.719 29.768 60.7643 30.964 62.359 33.356C63.9883 35.748 64.803 38.6253 64.803 41.988C64.803 45.316 63.971 48.1587 62.307 50.516C60.6776 52.8733 58.4936 54.052 55.755 54.052C53.051 54.052 50.867 52.856 49.203 50.464C47.539 48.0373 46.707 45.3507 46.707 42.404C46.707 38.6253 47.4696 35.6093 48.995 33.356C50.6243 30.964 53.0336 29.768 56.223 29.768ZM55.599 34.032C54.143 34.032 52.947 34.7947 52.011 36.32C51.075 37.8453 50.607 39.4573 50.607 41.156C50.607 43.7907 51.127 45.8013 52.167 47.188C53.207 48.5747 54.3856 49.268 55.703 49.268C58.0603 49.268 59.5683 48.2453 60.227 46.2C60.5043 45.2293 60.643 44.016 60.643 42.56C60.643 36.8747 58.9616 34.032 55.599 34.032ZM68.8756 36.32C68.8756 34.2747 69.6036 32.6453 71.0596 31.432C72.5156 30.2187 74.197 29.612 76.1036 29.612C78.045 29.612 79.8996 29.9587 81.6676 30.652C83.4356 31.3453 84.3196 32.264 84.3196 33.408C84.3196 33.9973 84.0943 34.4653 83.6436 34.812C83.193 35.1587 82.7943 35.332 82.4476 35.332C82.1356 35.332 81.8756 35.332 81.6676 35.332C81.4943 35.2973 80.801 34.968 79.5876 34.344C78.409 33.72 77.317 33.408 76.3116 33.408C75.3063 33.408 74.4396 33.668 73.7116 34.188C73.0183 34.6733 72.6716 35.4013 72.6716 36.372C72.6716 37.3427 73.0703 38.1053 73.8676 38.66C74.6996 39.2147 76.1383 39.7 78.1836 40.116C80.229 40.4973 81.789 41.052 82.8636 41.78C83.973 42.508 84.5276 43.86 84.5276 45.836C84.5276 48.7133 83.765 50.7587 82.2396 51.972C80.749 53.1507 78.929 53.74 76.7796 53.74C74.6303 53.74 72.793 53.4453 71.2676 52.856C69.777 52.2667 69.0316 51.3827 69.0316 50.204C69.0316 48.852 69.7076 48.176 71.0596 48.176C71.4063 48.176 72.169 48.4187 73.3476 48.904C74.5263 49.3893 75.6876 49.632 76.8316 49.632C78.0103 49.632 78.8943 49.268 79.4836 48.54C80.1076 47.7773 80.4196 46.9107 80.4196 45.94C80.4196 44.9693 80.021 44.276 79.2236 43.86C78.4263 43.4093 77.213 43.0453 75.5836 42.768C73.9543 42.4907 72.7583 42.196 71.9956 41.884C69.9156 41.052 68.8756 39.1973 68.8756 36.32ZM96.2154 53.948C95.0368 53.948 93.9448 53.5493 92.9394 52.752C92.9394 52.752 92.7141 52.5613 92.2634 52.18V67.78C92.0554 68.4733 91.6914 69.0453 91.1714 69.496C90.6514 69.9813 90.0968 70.224 89.5074 70.224C88.6061 70.224 88.1554 69.6173 88.1554 68.404V32.16C88.3634 31.2587 88.6061 30.6173 88.8834 30.236C89.1954 29.8547 89.6634 29.664 90.2874 29.664C90.9461 29.664 91.3621 29.82 91.5354 30.132C91.7434 30.4093 91.9861 31.2067 92.2634 32.524C92.4021 31.8307 92.9568 31.1893 93.9274 30.6C94.8981 30.0107 96.1981 29.716 97.8274 29.716C101.363 29.716 103.877 30.9987 105.367 33.564C106.858 36.1293 107.603 39.1627 107.603 42.664C107.603 46.1307 106.581 48.8867 104.535 50.932C102.525 52.9427 99.7514 53.948 96.2154 53.948ZM92.2634 38.348V48.02C92.4714 48.124 92.7141 48.2973 92.9914 48.54C93.9968 49.4413 95.0888 49.892 96.2674 49.892C101.051 49.892 103.443 47.4307 103.443 42.508C103.443 38.3133 102.369 35.6613 100.219 34.552C99.3181 34.0667 98.2088 33.824 96.8914 33.824C95.6088 33.9973 94.5168 34.5693 93.6154 35.54C92.7141 36.476 92.2634 37.412 92.2634 38.348ZM117.73 29.924C119.567 29.924 121.318 30.4613 122.982 31.536C124.646 32.6107 125.478 33.9453 125.478 35.54C125.478 37.1 124.802 38.6253 123.45 40.116C122.098 41.572 120.295 42.456 118.042 42.768C117.071 42.9067 115.615 42.976 113.674 42.976C114.055 45.9227 114.8 47.864 115.91 48.8C116.256 49.1813 116.724 49.372 117.314 49.372C119.463 49.372 121.266 48.696 122.722 47.344C124.178 45.9573 125.218 45.264 125.842 45.264C126.119 45.264 126.535 45.524 127.09 46.044C127.644 46.564 127.922 47.0493 127.922 47.5C127.922 48.4013 126.83 49.7013 124.646 51.4C123.675 52.1973 122.496 52.8733 121.11 53.428C119.758 53.948 118.492 54.208 117.314 54.208C114.298 54.208 112.079 52.2667 110.658 48.384C109.756 45.992 109.306 43.3573 109.306 40.48C109.306 37.6027 109.982 35.124 111.334 33.044C112.686 30.964 114.818 29.924 117.73 29.924ZM117.99 33.512C116.672 33.512 115.546 34.2573 114.61 35.748C114.263 36.268 113.934 37.4467 113.622 39.284C118.475 39.284 120.902 38.088 120.902 35.696C120.902 34.24 119.931 33.512 117.99 33.512ZM137.668 46.408L137.72 51.764C137.72 52.388 137.426 52.96 136.836 53.48C136.282 54 135.727 54.26 135.172 54.26C134.375 54.26 133.872 53.636 133.664 52.388C133.63 52.1107 133.491 49.58 133.248 44.796C133.006 39.9773 132.538 36.1987 131.844 33.46C131.532 32.1427 131.376 31.3627 131.376 31.12C131.376 29.976 132.07 29.404 133.456 29.404C134.046 29.404 134.514 29.6293 134.86 30.08C135.207 30.5307 135.415 30.9987 135.484 31.484C135.588 31.9347 135.675 32.5587 135.744 33.356C135.814 34.1533 135.866 34.656 135.9 34.864C136.628 33.1307 137.72 31.8307 139.176 30.964C140.632 30.0973 142.227 29.664 143.96 29.664C146.803 29.664 148.224 30.392 148.224 31.848C148.224 32.576 147.964 33.1653 147.444 33.616C146.959 34.032 146.387 34.24 145.728 34.24C142.782 34.24 140.702 35.176 139.488 37.048C138.275 38.92 137.668 42.04 137.668 46.408Z" fill="#D97757"/>
</svg>
